<svg width="512" height="512" viewBox="0 0 512 512" fill="none" xmlns="http://www.w3.org/2000/svg">
  <rect width="512" height="512" rx="100" fill="#16a34a"/>
  <path d="M256 96C203.112 96 160 139.112 160 192V288H144C130.745 288 120 298.745 120 312V376C120 389.255 130.745 400 144 400H368C381.255 400 392 389.255 392 376V312C392 298.745 381.255 288 368 288H352V192C352 139.112 308.888 96 256 96Z" fill="white"/>
  <circle cx="224" cy="248" r="16" fill="#16a34a"/>
  <circle cx="288" cy="248" r="16" fill="#16a34a"/>
  <path d="M220 296H292" stroke="#16a34a" stroke-width="12" stroke-linecap="round"/>
  <rect x="200" y="320" width="112" height="40" rx="8" fill="#16a34a"/>
  <circle cx="168" cy="312" r="24" fill="#fbbf24"/>
  <circle cx="344" cy="312" r="24" fill="#fbbf24"/>
  <path d="M196 152C196 152 224 128 256 128C288 128 316 152 316 152" stroke="white" stroke-width="8" stroke-linecap="round"/>
</svg>
